<mxfile host="app.diagrams.net" modified="2021-11-22T21:33:33.938Z" agent="5.0 (Windows NT 10.0; Win64; x64) AppleWebKit/537.36 (KHTML, like Gecko) Chrome/96.0.4664.45 Safari/537.36" etag="Tz6z6_Og4hiBvOI8eU7U" version="15.8.3" type="github">
  <diagram id="PDlrcf-eFjh89h7rTmUJ" name="Page-1">
    <mxGraphModel dx="1021" dy="584" grid="1" gridSize="10" guides="1" tooltips="1" connect="1" arrows="1" fold="1" page="1" pageScale="1" pageWidth="1169" pageHeight="827" math="0" shadow="0">
      <root>
        <mxCell id="0" />
        <mxCell id="1" parent="0" />
        <mxCell id="ixJKpeh1QNCeZrvTSKg1-19" value="Cliente" style="shape=umlActor;verticalLabelPosition=bottom;verticalAlign=top;html=1;" vertex="1" parent="1">
          <mxGeometry x="70" y="320" width="30" height="60" as="geometry" />
        </mxCell>
        <mxCell id="ixJKpeh1QNCeZrvTSKg1-20" value="" style="html=1;" vertex="1" parent="1">
          <mxGeometry x="230" y="50" width="510" height="760" as="geometry" />
        </mxCell>
        <mxCell id="ixJKpeh1QNCeZrvTSKg1-21" value="Solicita informações sobre os cursos oferecidos pela empresa&lt;span style=&quot;white-space: pre&quot;&gt;	&lt;/span&gt;" style="ellipse;whiteSpace=wrap;html=1;" vertex="1" parent="1">
          <mxGeometry x="280" y="150" width="180" height="80" as="geometry" />
        </mxCell>
        <mxCell id="ixJKpeh1QNCeZrvTSKg1-22" value="Venda de passagens áreas" style="text;html=1;resizable=0;autosize=1;align=center;verticalAlign=middle;points=[];fillColor=none;strokeColor=none;rounded=0;" vertex="1" parent="1">
          <mxGeometry x="395" y="70" width="160" height="20" as="geometry" />
        </mxCell>
        <mxCell id="ixJKpeh1QNCeZrvTSKg1-25" value="Include" style="endArrow=open;endSize=12;dashed=1;html=1;rounded=0;entryX=0;entryY=0.5;entryDx=0;entryDy=0;" edge="1" parent="1" source="ixJKpeh1QNCeZrvTSKg1-21" target="ixJKpeh1QNCeZrvTSKg1-26">
          <mxGeometry width="160" relative="1" as="geometry">
            <mxPoint x="310" y="300" as="sourcePoint" />
            <mxPoint x="470" y="300" as="targetPoint" />
          </mxGeometry>
        </mxCell>
        <mxCell id="ixJKpeh1QNCeZrvTSKg1-26" value="Responde ao aluno" style="ellipse;whiteSpace=wrap;html=1;" vertex="1" parent="1">
          <mxGeometry x="532" y="160" width="105" height="60" as="geometry" />
        </mxCell>
        <mxCell id="ixJKpeh1QNCeZrvTSKg1-38" style="edgeStyle=orthogonalEdgeStyle;rounded=0;orthogonalLoop=1;jettySize=auto;html=1;endArrow=none;endFill=0;" edge="1" parent="1" source="ixJKpeh1QNCeZrvTSKg1-19" target="ixJKpeh1QNCeZrvTSKg1-21">
          <mxGeometry relative="1" as="geometry" />
        </mxCell>
        <mxCell id="ixJKpeh1QNCeZrvTSKg1-45" style="edgeStyle=orthogonalEdgeStyle;rounded=0;orthogonalLoop=1;jettySize=auto;html=1;entryX=1;entryY=0.5;entryDx=0;entryDy=0;endArrow=none;endFill=0;" edge="1" parent="1" source="ixJKpeh1QNCeZrvTSKg1-44" target="ixJKpeh1QNCeZrvTSKg1-26">
          <mxGeometry relative="1" as="geometry">
            <Array as="points">
              <mxPoint x="680" y="390" />
              <mxPoint x="680" y="190" />
            </Array>
          </mxGeometry>
        </mxCell>
        <mxCell id="ixJKpeh1QNCeZrvTSKg1-55" style="edgeStyle=orthogonalEdgeStyle;rounded=0;orthogonalLoop=1;jettySize=auto;html=1;entryX=1;entryY=0.5;entryDx=0;entryDy=0;endArrow=none;endFill=0;" edge="1" parent="1" source="ixJKpeh1QNCeZrvTSKg1-44" target="ixJKpeh1QNCeZrvTSKg1-52">
          <mxGeometry relative="1" as="geometry">
            <Array as="points">
              <mxPoint x="680" y="390" />
              <mxPoint x="680" y="495" />
            </Array>
          </mxGeometry>
        </mxCell>
        <mxCell id="ixJKpeh1QNCeZrvTSKg1-44" value="Funcionário" style="shape=umlActor;verticalLabelPosition=bottom;verticalAlign=top;html=1;" vertex="1" parent="1">
          <mxGeometry x="840" y="360" width="30" height="60" as="geometry" />
        </mxCell>
        <mxCell id="ixJKpeh1QNCeZrvTSKg1-46" value="Pede informações sobre as turmas, horários e datas" style="ellipse;whiteSpace=wrap;html=1;" vertex="1" parent="1">
          <mxGeometry x="280" y="400" width="180" height="80" as="geometry" />
        </mxCell>
        <mxCell id="ixJKpeh1QNCeZrvTSKg1-47" value="Extends" style="endArrow=open;endSize=12;dashed=1;html=1;rounded=0;entryX=0.5;entryY=1;entryDx=0;entryDy=0;exitX=0.5;exitY=0;exitDx=0;exitDy=0;" edge="1" parent="1" source="ixJKpeh1QNCeZrvTSKg1-48" target="ixJKpeh1QNCeZrvTSKg1-46">
          <mxGeometry width="160" relative="1" as="geometry">
            <mxPoint x="469.99999999999864" y="200" as="sourcePoint" />
            <mxPoint x="542" y="200" as="targetPoint" />
          </mxGeometry>
        </mxCell>
        <mxCell id="ixJKpeh1QNCeZrvTSKg1-48" value="Realizar matrícula" style="ellipse;whiteSpace=wrap;html=1;" vertex="1" parent="1">
          <mxGeometry x="310" y="570" width="120" height="50" as="geometry" />
        </mxCell>
        <mxCell id="ixJKpeh1QNCeZrvTSKg1-50" value="Include" style="endArrow=open;endSize=12;dashed=1;html=1;rounded=0;entryX=0.5;entryY=1;entryDx=0;entryDy=0;exitX=1;exitY=0;exitDx=0;exitDy=0;" edge="1" parent="1" source="ixJKpeh1QNCeZrvTSKg1-46" target="ixJKpeh1QNCeZrvTSKg1-26">
          <mxGeometry width="160" relative="1" as="geometry">
            <mxPoint x="469.99999999999864" y="200" as="sourcePoint" />
            <mxPoint x="542" y="200" as="targetPoint" />
          </mxGeometry>
        </mxCell>
        <mxCell id="ixJKpeh1QNCeZrvTSKg1-51" style="edgeStyle=orthogonalEdgeStyle;rounded=0;orthogonalLoop=1;jettySize=auto;html=1;entryX=0;entryY=0.5;entryDx=0;entryDy=0;endArrow=none;endFill=0;" edge="1" parent="1" source="ixJKpeh1QNCeZrvTSKg1-19" target="ixJKpeh1QNCeZrvTSKg1-48">
          <mxGeometry relative="1" as="geometry" />
        </mxCell>
        <mxCell id="ixJKpeh1QNCeZrvTSKg1-52" value="Perguntar se já tem cadastro" style="ellipse;whiteSpace=wrap;html=1;" vertex="1" parent="1">
          <mxGeometry x="525" y="470" width="120" height="50" as="geometry" />
        </mxCell>
        <mxCell id="ixJKpeh1QNCeZrvTSKg1-54" value="Include" style="endArrow=open;endSize=12;dashed=1;html=1;rounded=0;entryX=0.077;entryY=0.802;entryDx=0;entryDy=0;exitX=1;exitY=0.5;exitDx=0;exitDy=0;entryPerimeter=0;" edge="1" parent="1" source="ixJKpeh1QNCeZrvTSKg1-48" target="ixJKpeh1QNCeZrvTSKg1-52">
          <mxGeometry width="160" relative="1" as="geometry">
            <mxPoint x="469.99999999999864" y="200" as="sourcePoint" />
            <mxPoint x="542" y="200" as="targetPoint" />
          </mxGeometry>
        </mxCell>
        <mxCell id="ixJKpeh1QNCeZrvTSKg1-56" value="Realizar cadastro" style="ellipse;whiteSpace=wrap;html=1;" vertex="1" parent="1">
          <mxGeometry x="310" y="680" width="120" height="50" as="geometry" />
        </mxCell>
        <mxCell id="ixJKpeh1QNCeZrvTSKg1-57" style="edgeStyle=orthogonalEdgeStyle;rounded=0;orthogonalLoop=1;jettySize=auto;html=1;entryX=0;entryY=0.5;entryDx=0;entryDy=0;endArrow=none;endFill=0;" edge="1" parent="1" source="ixJKpeh1QNCeZrvTSKg1-19" target="ixJKpeh1QNCeZrvTSKg1-56">
          <mxGeometry relative="1" as="geometry" />
        </mxCell>
        <mxCell id="ixJKpeh1QNCeZrvTSKg1-58" value="Extends" style="endArrow=open;endSize=12;dashed=1;html=1;rounded=0;entryX=1;entryY=0.5;entryDx=0;entryDy=0;exitX=0.5;exitY=1;exitDx=0;exitDy=0;" edge="1" parent="1" source="ixJKpeh1QNCeZrvTSKg1-52" target="ixJKpeh1QNCeZrvTSKg1-56">
          <mxGeometry width="160" relative="1" as="geometry">
            <mxPoint x="380" y="580" as="sourcePoint" />
            <mxPoint x="380" y="490" as="targetPoint" />
          </mxGeometry>
        </mxCell>
      </root>
    </mxGraphModel>
  </diagram>
</mxfile>
